<svg width="1024" height="1024" viewBox="0 0 1024 1024" xmlns="http://www.w3.org/2000/svg">
  <defs>
    <linearGradient id="bg" x1="0" y1="0" x2="1" y2="1">
      <stop offset="0%" stop-color="#1fb6ff"/>
      <stop offset="45%" stop-color="#2563eb"/>
      <stop offset="100%" stop-color="#4338ca"/>
    </linearGradient>
    <linearGradient id="topGloss" x1="0" y1="0" x2="0" y2="1">
      <stop offset="0%" stop-color="#ffffff" stop-opacity="0.30"/>
      <stop offset="100%" stop-color="#ffffff" stop-opacity="0"/>
    </linearGradient>
    <radialGradient id="disc" cx="50%" cy="38%" r="65%">
      <stop offset="0%" stop-color="#ffffff" stop-opacity="0.22"/>
      <stop offset="100%" stop-color="#ffffff" stop-opacity="0.08"/>
    </radialGradient>
    <linearGradient id="symbol" x1="0" y1="0" x2="1" y2="1">
      <stop offset="0%" stop-color="#ffffff"/>
      <stop offset="100%" stop-color="#e8f2ff"/>
    </linearGradient>
  </defs>
  <rect x="64" y="64" width="896" height="896" rx="200" fill="url(#bg)"/>
  <path d="M170 110 H854 C900 110 936 146 936 192 V332 C814 273 671 244 512 244 C353 244 210 273 88 332 V192 C88 146 124 110 170 110Z"
        fill="url(#topGloss)"/>
  <circle cx="512" cy="512" r="235" fill="url(#disc)"/>
  <path d="M380 492 C380 417 437 360 512 360 C587 360 644 417 644 492 L644 546 C644 564 629 579 611 579 L413 579 C395 579 380 564 380 546 Z"
        fill="url(#symbol)"/>
  <circle cx="448" cy="455" r="16" fill="#2563eb"/>
  <circle cx="512" cy="425" r="16" fill="#2563eb"/>
  <circle cx="576" cy="455" r="16" fill="#2563eb"/>
  <circle cx="474" cy="508" r="16" fill="#2563eb"/>
  <circle cx="550" cy="508" r="16" fill="#2563eb"/>
  <rect x="454" y="579" width="116" height="44" rx="16" fill="url(#symbol)"/>
  <path d="M330 700 C390 648 450 648 512 700 C574 752 634 752 694 700"
        fill="none" stroke="#ffffff" stroke-width="26" stroke-linecap="round"/>
  <path d="M386 772 C428 735 470 735 512 772 C554 809 596 809 638 772"
        fill="none" stroke="#ffffff" stroke-width="16" stroke-linecap="round" opacity="0.7"/>
</svg>
